<svg width="2975" height="1850" xmlns="http://www.w3.org/2000/svg" xmlns:xlink="http://www.w3.org/1999/xlink" xml:space="preserve" overflow="hidden"><defs><clipPath id="clip0"><rect x="1174" y="482" width="2975" height="1850"/></clipPath></defs><g clip-path="url(#clip0)" transform="translate(-1174 -482)"><g><path d="M2852.59 600.5 2852.59 2295.5M3245.61 600.5 3245.61 2295.5M3637.62 600.5 3637.62 2295.5M4029.5 600.5 4029.5 2295.5" stroke="#DEDEDE" stroke-width="3.4375" stroke-linejoin="round" stroke-miterlimit="10" fill="none"/></g><g><path d="M3902.13 646.021 2461 646.021 2461 696.023 3902.13 696.023ZM2946.1 788.026 2461 788.026 2461 838.027 2946.1 838.027ZM2648.09 929.031 2461 929.031 2461 979.032 2648.09 979.032ZM2637.09 1070.04 2461 1070.04 2461 1120.04 2637.09 1120.04ZM2636.09 1211.04 2461 1211.04 2461 1261.04 2636.09 1261.04ZM2591.09 1352.04 2461 1352.04 2461 1402.05 2591.09 1402.05ZM2574.08 1493.05 2461 1493.05 2461 1544.05 2574.08 1544.05ZM2560.08 1635.05 2461 1635.05 2461 1685.06 2560.08 1685.06ZM2503.08 1776.06 2461 1776.06 2461 1826.06 2503.08 1826.06ZM2501.08 1917.06 2461 1917.06 2461 1967.06 2501.08 1967.06ZM2490.08 2058.07 2461 2058.07 2461 2108.07 2490.08 2108.07ZM2481.08 2199.07 2461 2199.07 2461 2249.07 2481.08 2249.07Z" fill="#7C145C"/></g><g><path d="M2460.5 600.5 2460.5 2295.5" stroke="#DEDEDE" stroke-width="3.4375" stroke-linejoin="round" stroke-miterlimit="10" fill="none" fill-rule="evenodd"/></g><g><text fill="#585858" font-family="Roboto,Roboto_MSFontService,sans-serif" font-weight="400" font-size="41" transform="matrix(1 0 0 1 3929.81 686)">1838</text></g><g><text fill="#585858" font-family="Roboto,Roboto_MSFontService,sans-serif" font-weight="400" font-size="41" transform="matrix(1 0 0 1 2973.9 827)">619</text></g><g><text fill="#585858" font-family="Roboto,Roboto_MSFontService,sans-serif" font-weight="400" font-size="41" transform="matrix(1 0 0 1 2675.91 968)">239</text></g><g><text fill="#585858" font-family="Roboto,Roboto_MSFontService,sans-serif" font-weight="400" font-size="41" transform="matrix(1 0 0 1 2664.15 1109)">224</text></g><g><text fill="#585858" font-family="Roboto,Roboto_MSFontService,sans-serif" font-weight="400" font-size="41" transform="matrix(1 0 0 1 2663.36 1250)">223</text></g><g><text fill="#585858" font-family="Roboto,Roboto_MSFontService,sans-serif" font-weight="400" font-size="41" transform="matrix(1 0 0 1 2618.66 1392)">166</text></g><g><text fill="#585858" font-family="Roboto,Roboto_MSFontService,sans-serif" font-weight="400" font-size="41" transform="matrix(1 0 0 1 2601.41 1533)">144</text></g><g><text fill="#585858" font-family="Roboto,Roboto_MSFontService,sans-serif" font-weight="400" font-size="41" transform="matrix(1 0 0 1 2587.3 1674)">126</text></g><g><text fill="#585858" font-family="Roboto,Roboto_MSFontService,sans-serif" font-weight="400" font-size="41" transform="matrix(1 0 0 1 2530.84 1815)">54</text></g><g><text fill="#585858" font-family="Roboto,Roboto_MSFontService,sans-serif" font-weight="400" font-size="41" transform="matrix(1 0 0 1 2528.48 1956)">51</text></g><g><text fill="#585858" font-family="Roboto,Roboto_MSFontService,sans-serif" font-weight="400" font-size="41" transform="matrix(1 0 0 1 2517.5 2098)">37</text></g><g><text fill="#585858" font-family="Roboto,Roboto_MSFontService,sans-serif" font-weight="400" font-size="41" transform="matrix(1 0 0 1 2508.88 2239)">26</text></g><g><text fill="#6E6E6E" font-family="Roboto,Roboto_MSFontService,sans-serif" font-weight="400" font-size="41" transform="matrix(1 0 0 1 2449.39 560)">0</text></g><g><text fill="#6E6E6E" font-family="Roboto,Roboto_MSFontService,sans-serif" font-weight="400" font-size="41" transform="matrix(1 0 0 1 2818.29 560)">500</text></g><g><text fill="#6E6E6E" font-family="Roboto,Roboto_MSFontService,sans-serif" font-weight="400" font-size="41" transform="matrix(1 0 0 1 3198.78 560)">1000</text></g><g><text fill="#6E6E6E" font-family="Roboto,Roboto_MSFontService,sans-serif" font-weight="400" font-size="41" transform="matrix(1 0 0 1 3590.87 560)">1500</text></g><g><text fill="#6E6E6E" font-family="Roboto,Roboto_MSFontService,sans-serif" font-weight="400" font-size="41" transform="matrix(1 0 0 1 3982.96 560)">2000</text></g><g><text fill="#6E6E6E" font-family="Roboto,Roboto_MSFontService,sans-serif" font-weight="400" font-size="41" transform="matrix(1 0 0 1 2150.15 684)">Helsepersonell</text></g><g><text fill="#6E6E6E" font-family="Roboto,Roboto_MSFontService,sans-serif" font-weight="400" font-size="41" transform="matrix(1 0 0 1 1596.94 825)">Privatperson (pasient, bruker eller pårørende)</text></g><g><text fill="#6E6E6E" font-family="Roboto,Roboto_MSFontService,sans-serif" font-weight="400" font-size="41" transform="matrix(1 0 0 1 1607.02 966)">Ansatt innen offentlig forvaltning i kommune</text></g><g><text fill="#6E6E6E" font-family="Roboto,Roboto_MSFontService,sans-serif" font-weight="400" font-size="41" transform="matrix(1 0 0 1 2191.9 1107)">Elev/student</text></g><g><text fill="#6E6E6E" font-family="Roboto,Roboto_MSFontService,sans-serif" font-weight="400" font-size="41" transform="matrix(1 0 0 1 1841.62 1248)">Helsepersonell under utdanning</text></g><g><text fill="#6E6E6E" font-family="Roboto,Roboto_MSFontService,sans-serif" font-weight="400" font-size="41" transform="matrix(1 0 0 1 1180.88 1390)">Ansatt innen ledelse/administrasjon/IT i helse og omsorgstjenesten</text></g><g><text fill="#6E6E6E" font-family="Roboto,Roboto_MSFontService,sans-serif" font-weight="400" font-size="41" transform="matrix(1 0 0 1 1755.57 1531)">Ansatt i departement/direktorat/etat</text></g><g><text fill="#6E6E6E" font-family="Roboto,Roboto_MSFontService,sans-serif" font-weight="400" font-size="41" transform="matrix(1 0 0 1 2315.35 1672)">Annet</text></g><g><text fill="#6E6E6E" font-family="Roboto,Roboto_MSFontService,sans-serif" font-weight="400" font-size="41" transform="matrix(1 0 0 1 1808.78 1813)">Ansatt innen utdanning/forskning</text></g><g><text fill="#6E6E6E" font-family="Roboto,Roboto_MSFontService,sans-serif" font-weight="400" font-size="41" transform="matrix(1 0 0 1 1557.2 1954)">Ansatt i næringslivet innen helseteknologi og IT</text></g><g><text fill="#6E6E6E" font-family="Roboto,Roboto_MSFontService,sans-serif" font-weight="400" font-size="41" transform="matrix(1 0 0 1 1793.13 2095)">Ansatt i forbund eller organisasjon</text></g><g><text fill="#6E6E6E" font-family="Roboto,Roboto_MSFontService,sans-serif" font-weight="400" font-size="41" transform="matrix(1 0 0 1 1704.53 2237)">Ansatt innen offentlig forvaltning i fylke</text></g></g></svg>