<svg width="3827" height="1087" xmlns="http://www.w3.org/2000/svg" xmlns:xlink="http://www.w3.org/1999/xlink" xml:space="preserve" overflow="hidden"><g transform="translate(-250 -731)"><path d="M2245.99 909.815 2791.36 909.815 2791.36 1077.13 2245.99 1077.13Z" fill="#A0D7AF" fill-rule="evenodd"/><path d="M2791.36 909.815 3251.88 909.815 3251.88 1077.13 2791.36 1077.13Z" fill="#B4DFC1" fill-rule="evenodd"/><path d="M3251.88 909.815 3650.62 909.815 3650.62 1077.13 3251.88 1077.13Z" fill="#BFE4CB" fill-rule="evenodd"/><path d="M3650.62 909.815 4076.88 909.815 4076.88 1077.13 3650.62 1077.13Z" fill="#A0D7AF" fill-rule="evenodd"/><path d="M2245.99 1077.13 2791.36 1077.13 2791.36 1244.45 2245.99 1244.45Z" fill="#FAC6C9" fill-rule="evenodd"/><path d="M2791.36 1077.13 3251.88 1077.13 3251.88 1244.45 2791.36 1244.45Z" fill="#F8696B" fill-rule="evenodd"/><path d="M3251.88 1077.13 3650.62 1077.13 3650.62 1244.45 3251.88 1244.45Z" fill="#F9A7A9" fill-rule="evenodd"/><path d="M3650.62 1077.13 4076.88 1077.13 4076.88 1244.45 3650.62 1244.45Z" fill="#F2F8F6" fill-rule="evenodd"/><path d="M2245.99 1244.45 2791.36 1244.45 2791.36 1411.76 2245.99 1411.76Z" fill="#F99EA0" fill-rule="evenodd"/><path d="M2791.36 1244.45 3251.88 1244.45 3251.88 1411.76 2791.36 1411.76Z" fill="#F9A9AB" fill-rule="evenodd"/><path d="M3251.88 1244.45 3650.62 1244.45 3650.62 1411.76 3251.88 1411.76Z" fill="#FABBBD" fill-rule="evenodd"/><path d="M3650.62 1244.45 4076.88 1244.45 4076.88 1411.76 3650.62 1411.76Z" fill="#FBE1E4" fill-rule="evenodd"/><path d="M2245.99 1411.76 2791.36 1411.76 2791.36 1579.08 2245.99 1579.08Z" fill="#FBE1E4" fill-rule="evenodd"/><path d="M2791.36 1411.76 3251.88 1411.76 3251.88 1579.08 2791.36 1579.08Z" fill="#ECF6F1" fill-rule="evenodd"/><path d="M3251.88 1411.76 3650.62 1411.76 3650.62 1579.08 3251.88 1579.08Z" fill="#FAD4D7" fill-rule="evenodd"/><path d="M3650.62 1411.76 4076.88 1411.76 4076.88 1579.08 3650.62 1579.08Z" fill="#FAB9BB" fill-rule="evenodd"/><path d="M2245.99 1579.08 2791.36 1579.08 2791.36 1746.39 2245.99 1746.39Z" fill="#63BE7B" fill-rule="evenodd"/><path d="M2791.36 1579.08 3251.88 1579.08 3251.88 1746.39 2791.36 1746.39Z" fill="#7FCA93" fill-rule="evenodd"/><path d="M3251.88 1579.08 3650.62 1579.08 3650.62 1746.39 3251.88 1746.39Z" fill="#76C68B" fill-rule="evenodd"/><path d="M3650.62 1579.08 4076.88 1579.08 4076.88 1746.39 3650.62 1746.39Z" fill="#74C58A" fill-rule="evenodd"/><g><text fill="#202020" font-family="Roboto,Roboto_MSFontService,sans-serif" font-weight="700" font-size="119" transform="matrix(1 0 0 1 3804.17 880)">2025</text></g><g><text fill="#202020" font-family="Roboto,Roboto_MSFontService,sans-serif" font-weight="700" font-size="119" transform="matrix(1 0 0 1 3377.92 880)">2024</text></g><g><text fill="#202020" font-family="Roboto,Roboto_MSFontService,sans-serif" font-weight="700" font-size="119" transform="matrix(1 0 0 1 2978.7 880)">2023</text></g><g><text fill="#202020" font-family="Roboto,Roboto_MSFontService,sans-serif" font-weight="700" font-size="119" transform="matrix(1 0 0 1 2518.13 880)">2022</text></g><g><text fill="#202020" font-family="Roboto,Roboto_MSFontService,sans-serif" font-weight="400" font-size="119" transform="matrix(1 0 0 1 3825.94 1047)">84 %</text></g><g><text fill="#202020" font-family="Roboto,Roboto_MSFontService,sans-serif" font-weight="400" font-size="119" transform="matrix(1 0 0 1 3399.69 1047)">78 %</text></g><g><text fill="#202020" font-family="Roboto,Roboto_MSFontService,sans-serif" font-weight="400" font-size="119" transform="matrix(1 0 0 1 3000.47 1047)">80 %</text></g><g><text fill="#202020" font-family="Roboto,Roboto_MSFontService,sans-serif" font-weight="400" font-size="119" transform="matrix(1 0 0 1 2539.9 1047)">84 %</text></g><g><text fill="#202020" font-family="Roboto,Roboto_MSFontService,sans-serif" font-weight="400" font-size="119" transform="matrix(1 0 0 1 250.938 1047)">Fikk gjort det jeg skulle</text></g><g><text fill="#202020" font-family="Roboto,Roboto_MSFontService,sans-serif" font-weight="400" font-size="119" transform="matrix(1 0 0 1 3825.94 1214)">69 %</text></g><g><text fill="#202020" font-family="Roboto,Roboto_MSFontService,sans-serif" font-weight="400" font-size="119" transform="matrix(1 0 0 1 3399.69 1214)">61 %</text></g><g><text fill="#202020" font-family="Roboto,Roboto_MSFontService,sans-serif" font-weight="400" font-size="119" transform="matrix(1 0 0 1 3000.47 1214)">56 %</text></g><g><text fill="#202020" font-family="Roboto,Roboto_MSFontService,sans-serif" font-weight="400" font-size="119" transform="matrix(1 0 0 1 2539.9 1214)">63 %</text></g><g><text fill="#202020" font-family="Roboto,Roboto_MSFontService,sans-serif" font-weight="400" font-size="119" transform="matrix(1 0 0 1 250.938 1214)">Enkelt å gjøre det jeg kom for</text></g><g><text fill="#202020" font-family="Roboto,Roboto_MSFontService,sans-serif" font-weight="400" font-size="119" transform="matrix(1 0 0 1 3825.94 1382)">65 %</text></g><g><text fill="#202020" font-family="Roboto,Roboto_MSFontService,sans-serif" font-weight="400" font-size="119" transform="matrix(1 0 0 1 3399.69 1382)">62 %</text></g><g><text fill="#202020" font-family="Roboto,Roboto_MSFontService,sans-serif" font-weight="400" font-size="119" transform="matrix(1 0 0 1 3000.47 1382)">61 %</text></g><g><text fill="#202020" font-family="Roboto,Roboto_MSFontService,sans-serif" font-weight="400" font-size="119" transform="matrix(1 0 0 1 2539.9 1382)">60 %</text></g><g><text fill="#202020" font-family="Roboto,Roboto_MSFontService,sans-serif" font-weight="400" font-size="119" transform="matrix(1 0 0 1 250.938 1382)">Innholdet var oppdatert</text></g><g><text fill="#202020" font-family="Roboto,Roboto_MSFontService,sans-serif" font-weight="400" font-size="119" transform="matrix(1 0 0 1 3825.94 1549)">62 %</text></g><g><text fill="#202020" font-family="Roboto,Roboto_MSFontService,sans-serif" font-weight="400" font-size="119" transform="matrix(1 0 0 1 3399.69 1549)">64 %</text></g><g><text fill="#202020" font-family="Roboto,Roboto_MSFontService,sans-serif" font-weight="400" font-size="119" transform="matrix(1 0 0 1 3000.47 1549)">70 %</text></g><g><text fill="#202020" font-family="Roboto,Roboto_MSFontService,sans-serif" font-weight="400" font-size="119" transform="matrix(1 0 0 1 2539.9 1549)">65 %</text></g><g><text fill="#202020" font-family="Roboto,Roboto_MSFontService,sans-serif" font-weight="400" font-size="119" transform="matrix(1 0 0 1 250.938 1549)">Innholdet hadde høy faglig kvalitet</text></g><g><text fill="#202020" font-family="Roboto,Roboto_MSFontService,sans-serif" font-weight="400" font-size="119" transform="matrix(1 0 0 1 3825.94 1716)">92 %</text></g><g><text fill="#202020" font-family="Roboto,Roboto_MSFontService,sans-serif" font-weight="400" font-size="119" transform="matrix(1 0 0 1 3399.69 1716)">92 %</text></g><g><text fill="#202020" font-family="Roboto,Roboto_MSFontService,sans-serif" font-weight="400" font-size="119" transform="matrix(1 0 0 1 3000.47 1716)">90 %</text></g><g><text fill="#202020" font-family="Roboto,Roboto_MSFontService,sans-serif" font-weight="400" font-size="119" transform="matrix(1 0 0 1 2539.9 1716)">95 %</text></g><g><text fill="#202020" font-family="Roboto,Roboto_MSFontService,sans-serif" font-weight="400" font-size="119" transform="matrix(1 0 0 1 250.938 1716)">Språket var enkelt å forstå</text></g></g></svg>